<svg xmlns="http://www.w3.org/2000/svg" viewBox="0 0 456 681"><path d="M226.5 275.539c-15.627 2.924-32.121 9.847-45.134 18.944l-6.537 4.569-1.958-2.489c-14.81-18.828-62.943 51.966-74.925 110.2-10.38 50.448 2.216 103.367 31.598 132.749 41.397 41.397 120.543 44.57 170.804 6.848 41.046-30.806 64.175-87.023 59.786-145.315-5.02-66.659-35.584-110.658-85.928-123.696-12.511-3.24-35.416-4.109-47.706-1.81m-2.5 29.887c-69.41 15.406-114.737 104.87-90.35 178.326 9.364 28.205 29.889 47.879 57.85 55.452 12.098 3.276 40.582 3.277 52 .001 52-14.921 86.394-67.914 84.183-129.705-2.05-57.262-26.069-94.853-66.38-103.887-8.551-1.916-29.05-2.019-37.303-.187" fill-rule="evenodd"/></svg>