<svg xmlns="http://www.w3.org/2000/svg" viewBox="0 0 805 693"><path d="M436.796 142.147c-3.955 1.447-3.996 1.964-2.78 35.547.732 20.207 1.023 90.714.846 204.921-.249 161.521-.148 174.3 1.408 176.674 3.089 4.714 14.092 9.211 22.537 9.211 9.516 0 10.626-1.191 9.788-10.5-3.468-38.535-.734-123.098 4.945-152.926 11.186-58.758 57.536-99.361 113.46-99.393 26.448-.015 42.646 11.954 49.827 36.819 4.682 16.213 4.659 15.646 4.692 118.196l.032 97.197 2.419 2.575c5.826 6.201 21.226 10.35 28.002 7.544 3.905-1.618 4.492-4.072 3.561-14.881-.409-4.747-1.106-50.256-1.55-101.131-.869-99.646-.828-98.891-6.448-118.284-11.446-39.494-37.616-58.66-80.154-58.703-46.876-.047-91.39 25.354-115.479 65.896-3.179 5.35-4.508 6.878-4.782 5.5-.209-1.05-.163-44.659.102-96.909.291-57.278.115-95.794-.443-97-3.338-7.208-21.468-13.468-29.983-10.353M212.5 275.084c-52.734 7.24-87.48 37.396-87.468 75.916.008 24.531 10.636 41.912 32.551 53.23 12.694 6.557 19.219 8.535 61.917 18.77 41.757 10.01 49.117 12.19 61.185 18.123 33.08 16.262 40.111 53.663 14.753 78.479-17.009 16.645-42.943 24.483-76.38 23.084-42.856-1.793-65.285-14.338-80.584-45.072-6.374-12.805-9.161-13.631-18.123-5.37-9.07 8.36-11.766 18.151-7.368 26.756 25.231 49.363 119.363 69.9 181.119 39.514 33.967-16.712 51.774-46.77 48.04-81.091-3.161-29.061-17.047-48.372-44.767-62.257-10.974-5.497-26.218-10.033-65.958-19.624-50.295-12.14-57.749-14.913-67.345-25.06-16.267-17.2-6.515-45.135 20.414-58.475 14.968-7.415 24.885-9.352 48.014-9.377 35.075-.038 53.715 7.404 71.062 28.371 5.246 6.342 7.169 7.998 9.278 7.995 9.783-.013 19.969-17.275 15.612-26.457-6.66-14.033-37.56-30.897-66.193-36.125-10.459-1.909-39.824-2.694-49.759-1.33" fill-rule="evenodd"/></svg>