<!DOCTYPE svg PUBLIC "-//W3C//DTD SVG 1.1//EN" "http://www.w3.org/Graphics/SVG/1.1/DTD/svg11.dtd">
<svg xmlns="http://www.w3.org/2000/svg" viewBox="0 0 456 693">
<path d="M245 148.297c-36.835 25.346-72.722 53.33-75.647 58.988-1.788 3.456-1.041 7.782 1.784 10.339 3.788 3.428 8.386 2.373 20.863-4.788 19.848-11.39 48.366-25.129 78.5-37.82 8.25-3.474 15.788-6.994 16.75-7.821 6.043-5.197-3.204-18.62-17.96-26.069-7.342-3.707-9.338-3.118-24.29 7.171M211.079 275.93c-.841.532-1.344 2.262-1.232 4.235.105 1.834.374 64.985.599 140.335l.408 137 3.672 3.192c4.8 4.172 14.239 7.312 21.918 7.293 7.285-.019 8.884-.873 8.669-4.629-.089-1.571-.349-64.731-.576-140.356l-.414-137.5-3.661-3.192c-6.521-5.685-24.359-9.558-29.383-6.378" fill-rule="evenodd"/>
</svg>